<svg width="58" height="48" viewBox="0 0 58 48" fill="none" xmlns="http://www.w3.org/2000/svg">
<g filter="url(#filter0_f_760_2)">
<path d="M9 2L10.8906 7.10936L16 9L10.8906 10.8906L9 16L7.10936 10.8906L2 9L7.10936 7.10936L9 2Z" fill="white"/>
</g>
<path d="M9 2L10.8906 7.10936L16 9L10.8906 10.8906L9 16L7.10936 10.8906L2 9L7.10936 7.10936L9 2Z" fill="white"/>
<g filter="url(#filter1_f_760_2)">
<path d="M51.5 37L52.7154 40.2846L56 41.5L52.7154 42.7154L51.5 46L50.2846 42.7154L47 41.5L50.2846 40.2846L51.5 37Z" fill="white"/>
</g>
<path d="M51.5 37L52.7154 40.2846L56 41.5L52.7154 42.7154L51.5 46L50.2846 42.7154L47 41.5L50.2846 40.2846L51.5 37Z" fill="white"/>
<defs>
<filter id="filter0_f_760_2" x="0" y="0" width="18" height="18" filterUnits="userSpaceOnUse" color-interpolation-filters="sRGB">
<feFlood flood-opacity="0" result="BackgroundImageFix"/>
<feBlend mode="normal" in="SourceGraphic" in2="BackgroundImageFix" result="shape"/>
<feGaussianBlur stdDeviation="1" result="effect1_foregroundBlur_760_2"/>
</filter>
<filter id="filter1_f_760_2" x="45" y="35" width="13" height="13" filterUnits="userSpaceOnUse" color-interpolation-filters="sRGB">
<feFlood flood-opacity="0" result="BackgroundImageFix"/>
<feBlend mode="normal" in="SourceGraphic" in2="BackgroundImageFix" result="shape"/>
<feGaussianBlur stdDeviation="1" result="effect1_foregroundBlur_760_2"/>
</filter>
</defs>
</svg>

